<svg width="31" height="37" viewBox="0 0 31 37" fill="none" xmlns="http://www.w3.org/2000/svg">
<path d="M12.6701 1.14494C12.8001 1.01179 12.9555 0.906035 13.1271 0.833926C13.2987 0.761818 13.483 0.724814 13.6691 0.725099C13.8552 0.725385 14.0394 0.762954 14.2108 0.835588C14.3821 0.908222 14.5372 1.01445 14.6668 1.148L30.5367 17.4313C30.8154 17.7173 30.9714 18.1008 30.9714 18.5001C30.9714 18.8995 30.8154 19.283 30.5367 19.5689L14.6668 35.8523C14.537 35.9856 14.3818 36.0916 14.2103 36.164C14.0388 36.2363 13.8546 36.2736 13.6685 36.2736C13.4823 36.2736 13.2981 36.2363 13.1266 36.164C12.9552 36.0916 12.7999 35.9856 12.6701 35.8523C12.403 35.5788 12.2534 35.2117 12.2534 34.8294C12.2534 34.4471 12.403 34.08 12.6701 33.8065L27.5936 18.5001L12.6701 3.18763C12.4039 2.91429 12.2549 2.54783 12.2549 2.16628C12.2549 1.78474 12.4039 1.41827 12.6701 1.14494ZM0.420079 1.14494C0.550121 1.01179 0.705521 0.906035 0.877105 0.833926C1.04869 0.761818 1.23298 0.724814 1.4191 0.725099C1.60522 0.725385 1.7894 0.762954 1.96076 0.835588C2.13212 0.908222 2.2872 1.01445 2.41683 1.148L18.2867 17.4313C18.5654 17.7173 18.7214 18.1008 18.7214 18.5001C18.7214 18.8995 18.5654 19.283 18.2867 19.5689L2.41683 35.8523C2.28699 35.9856 2.13175 36.0916 1.96028 36.164C1.78881 36.2363 1.60457 36.2736 1.41845 36.2736C1.23233 36.2736 1.0481 36.2363 0.876627 36.164C0.705154 36.0916 0.549917 35.9856 0.420079 35.8523C0.152961 35.5788 0.00341797 35.2117 0.00341797 34.8294C0.00341797 34.4471 0.152961 34.08 0.420079 33.8065L15.3436 18.5001L0.420079 3.18763C0.153877 2.91429 0.00491114 2.54783 0.00491114 2.16628C0.00491114 1.78474 0.153877 1.41827 0.420079 1.14494Z" fill="#1E7CCF"/>
</svg>
